<svg width="162" height="94" viewBox="0 0 162 94" fill="none" xmlns="http://www.w3.org/2000/svg">
<path d="M81.0009 0C80.5101 0 80.0193 0.00671633 79.5351 0.026867C35.1662 0.99408 0.537889 45.418 0.537889 45.418V45.4247C0.517719 45.4515 0.504271 45.4784 0.490823 45.5053C0.416863 45.6195 0.356351 45.7336 0.302568 45.8478C0.228607 45.9755 0.174818 46.1031 0.121027 46.2374C0.100856 46.3314 0.0806841 46.4188 0.0672376 46.5128C0.0268947 46.6807 0 46.8554 0 47.0367C0.00672324 47.1106 0.0134482 47.1845 0.0268947 47.2584C0.0470662 47.4531 0.0806841 47.6412 0.141198 47.8226C0.168091 47.8763 0.188263 47.9367 0.215158 47.9905C0.295842 48.1786 0.389969 48.3532 0.511008 48.5144C0.517733 48.5278 0.531179 48.5413 0.537903 48.5614C0.537903 48.5614 35.1645 92.9999 79.5352 93.9731C80.026 93.9933 80.5101 94 81.0009 94C81.4917 94 81.9759 93.9933 82.4667 93.9731C125.612 93.0328 159.426 51.1131 161.268 48.7901V48.7834C162.162 47.8766 162.249 46.4459 161.463 45.4452V45.4385C161.456 45.4317 161.456 45.425 161.449 45.4183C161.449 45.4183 126.843 0.986687 82.4658 0.0272114C81.9817 0.00706069 81.4917 0 81.0009 0ZM81.0009 5.05771C104.272 5.05771 123.058 23.7967 123.058 46.984C123.058 69.7277 104.985 88.2054 82.3263 88.9035C81.8825 88.9102 81.4388 88.9303 80.995 88.9303C80.5512 88.9303 80.1142 88.9102 79.6704 88.9035C57.0117 88.2049 38.911 69.7277 38.911 46.984C38.911 23.7916 57.7243 5.05771 80.9941 5.05771H81.0009ZM114.054 13.5209C135.584 24.214 151.667 41.7721 156.158 46.9907C151.667 52.2028 135.598 69.7533 114.075 80.4468C122.742 71.9166 128.127 60.0743 128.127 46.9907C128.127 33.8997 122.735 22.0513 114.054 13.5209ZM47.9269 13.5276C39.2466 22.0511 33.8542 33.9001 33.8542 46.9906C33.8542 60.0749 39.2399 71.9163 47.9135 80.4398C26.3908 69.7466 10.3211 52.2023 5.82347 46.9906C10.3216 41.7716 26.3977 24.2211 47.9341 13.5276H47.9269ZM81.0009 25.2014C68.9655 25.2014 59.1357 34.981 59.1357 46.9907C59.1357 59.0005 68.959 68.7939 81.0009 68.7939C93.0363 68.7939 102.845 58.9942 102.845 46.9907C102.845 34.9811 93.0423 25.2014 81.0009 25.2014ZM81.0009 30.2658C90.3064 30.2658 97.7832 37.7213 97.7832 46.9906C97.7832 56.2598 90.3064 63.7355 81.0009 63.7355C71.6954 63.7355 64.1985 56.2596 64.1985 46.9906C64.1985 37.7215 71.6887 30.2658 81.0009 30.2658Z" fill="#1ABCFF"/>
</svg>
