<svg width="114" height="120" viewBox="0 0 114 120" fill="none" xmlns="http://www.w3.org/2000/svg">
<path fill-rule="evenodd" clip-rule="evenodd" d="M0.00544163 101.614V99.7924C0.00544163 95.39 1.90274 91.3834 4.90352 88.472C6.37677 87.0407 8.1164 85.875 10.0246 85.0564C9.99737 85.0293 9.97562 85.0076 9.94844 84.9805C8.25781 83.2944 7.21404 80.9685 7.21404 78.4039C7.21404 75.834 8.25781 73.5082 9.94844 71.8274C11.6391 70.1413 13.9659 69.1003 16.5427 69.1003C19.1196 69.1003 21.4517 70.1413 23.137 71.8274C24.8276 73.5135 25.8714 75.834 25.8714 78.4039C25.8714 80.9739 24.8276 83.2997 23.137 84.9805L23.0609 85.0564C24.9691 85.8805 26.7087 87.0462 28.1819 88.472C31.1827 91.3835 33.08 95.3901 33.08 99.7924V101.614C33.08 101.983 33.0637 102.357 33.0365 102.753C33.0093 103.132 32.9658 103.512 32.9115 103.886C32.8245 104.498 32.2972 104.938 31.6992 104.938H1.38662C0.739703 104.938 0.212375 104.439 0.163443 103.81C0.114516 103.457 0.0764612 103.105 0.0492799 102.747C0.0220987 102.357 0.00544163 101.977 0.00544163 101.614ZM47.3009 64.5627C46.8279 64.0802 46.8388 63.3049 47.3227 62.8386C47.8065 62.3669 48.5839 62.3777 49.0514 62.8603L52.6721 66.5796L59.5219 61.532C60.0655 61.1308 60.832 61.2446 61.2343 61.7868C61.6366 62.329 61.5225 63.0934 60.9788 63.4947L53.2919 69.1549C52.8081 69.5344 52.1014 69.4965 51.661 69.0465L47.3009 64.5627ZM54.216 76.3332C57.2549 76.3332 60.0057 75.1025 62.0009 73.1182C63.9906 71.1338 65.2246 68.385 65.2246 65.3542C65.2246 62.3235 63.9905 59.5801 62.0009 57.5903C60.0111 55.6059 57.2549 54.3752 54.216 54.3752C51.1771 54.3752 48.4262 55.606 46.4311 57.5903C44.4414 59.5747 43.2074 62.3235 43.2074 65.3542C43.2074 68.385 44.4414 71.1284 46.4311 73.1182C48.4262 75.1079 51.1771 76.3332 54.216 76.3332ZM63.7349 74.8531C66.1704 72.4242 67.6762 69.0681 67.6762 65.3598C67.6762 61.6515 66.1704 58.2954 63.7349 55.8665C61.2994 53.4375 57.9343 51.9358 54.216 51.9358C50.4976 51.9358 47.1325 53.4375 44.697 55.8665C42.2616 58.2954 40.7557 61.6515 40.7557 65.3598C40.7557 69.0681 42.2616 72.4242 44.697 74.8531C47.1325 77.282 50.4976 78.7838 54.216 78.7838C57.9343 78.7838 61.2994 77.282 63.7349 74.8531ZM58.641 81.5272C59.3369 81.3375 60.0055 81.1098 60.647 80.8441C61.2994 80.573 61.9354 80.264 62.5552 79.9062C62.9248 79.6947 63.3652 79.7001 63.7185 79.879L67.5457 81.8254L70.7314 78.6482L68.7799 74.8313C68.5787 74.441 68.6113 73.9964 68.8234 73.644C69.1713 73.0367 69.4812 72.4078 69.7475 71.768C70.0139 71.1283 70.2422 70.4614 70.4325 69.7728C70.5521 69.3337 70.8946 69.0138 71.3078 68.9108L75.3197 67.6096V63.115L71.2371 61.7921C70.8293 61.6619 70.5358 61.3366 70.4325 60.9517C70.2422 60.2577 70.0139 59.5909 69.7475 58.9511C69.4757 58.3005 69.1658 57.6662 68.807 57.0481C68.595 56.674 68.6004 56.2402 68.7799 55.8878L70.7314 52.071L67.5457 48.8938L63.7185 50.8401C63.3271 51.0407 62.8813 51.0082 62.528 50.7967C61.9191 50.4498 61.2885 50.1407 60.647 49.8751C60.0055 49.6094 59.3368 49.3817 58.6464 49.1919C58.206 49.0726 57.8853 48.7311 57.782 48.319L56.4773 44.3178H51.9706L50.6441 48.3895C50.5136 48.7962 50.1875 49.0889 49.8015 49.1919C49.1056 49.3817 48.437 49.6094 47.7955 49.8751C47.1431 50.1462 46.5071 50.4606 45.8873 50.813C45.5177 51.0245 45.0773 51.0191 44.7239 50.8401L40.8968 48.8938L37.711 52.071L39.6626 55.8879C39.8638 56.2782 39.8311 56.7282 39.6191 57.0752C39.2712 57.6824 38.9613 58.3114 38.695 58.9512C38.4286 59.5909 38.2003 60.2578 38.01 60.9518C37.8904 61.3909 37.5479 61.7108 37.1347 61.8138L33.1227 63.115V67.6096L37.2054 68.9325C37.6132 69.0626 37.9067 69.3934 38.01 69.7729C38.2003 70.4669 38.4286 71.1337 38.695 71.7735C38.9668 72.4241 39.2767 73.0584 39.63 73.6765C39.842 74.0506 39.8366 74.4843 39.6572 74.8368L37.7056 78.6536L40.8914 81.8308L44.7185 79.8845C45.11 79.6839 45.5557 79.7164 45.9091 79.9278C46.518 80.2748 47.1486 80.5839 47.7901 80.8495C48.4316 81.1152 49.1003 81.3429 49.7907 81.5327C50.231 81.6519 50.5518 81.9935 50.655 82.4056L51.9598 86.4068H56.4665L57.793 82.3351C57.9234 81.9284 58.255 81.6357 58.6356 81.5326L58.641 81.5272ZM61.5875 83.1049C62.1366 82.8772 62.6693 82.6278 63.1857 82.3567L67.2303 84.4116C67.7141 84.661 68.2904 84.5526 68.6546 84.1893L73.1014 79.7544C73.4983 79.3586 73.569 78.7568 73.3026 78.2905L71.264 74.3001C71.5358 73.7851 71.7859 73.2537 72.0142 72.7062C72.2426 72.164 72.4437 71.611 72.6177 71.0526L76.9287 69.6538C77.4452 69.4857 77.7768 69.0086 77.7768 68.4936V62.2261C77.7768 61.6514 77.3854 61.1743 76.8526 61.0388L72.6177 59.6671C72.4437 59.1087 72.2426 58.5556 72.0143 58.0135C71.7859 57.4659 71.5359 56.9346 71.2641 56.4195L73.3245 52.3859C73.5745 51.9033 73.4658 51.3286 73.1016 50.9654L68.6547 46.5305C68.2578 46.1347 67.6544 46.0642 67.1869 46.3299L63.1857 48.363C62.6693 48.0919 62.1365 47.8425 61.5875 47.6148C61.0439 47.3871 60.4894 47.1919 59.9294 47.013L58.5269 42.7135C58.3584 42.1985 57.88 41.8677 57.3635 41.8677H51.0792C50.5029 41.8677 50.0245 42.2581 49.8886 42.7894L48.5132 47.013C47.9533 47.1865 47.3988 47.3871 46.8551 47.6148C46.3061 47.8425 45.7733 48.0919 45.2569 48.363L41.2124 46.3081C40.7285 46.0641 40.1523 46.1671 39.7881 46.5304L35.3412 50.9653C34.9444 51.3611 34.8737 51.9629 35.1401 52.4292L37.1786 56.4196C36.9068 56.9346 36.6567 57.466 36.4284 58.0135C36.2001 58.5556 35.999 59.1087 35.825 59.6671L31.5139 61.0659C30.9975 61.2339 30.6659 61.7111 30.6659 62.2261L30.6604 68.4936C30.6604 69.0629 31.0518 69.5454 31.5846 69.6809L35.8195 71.0526C35.9935 71.611 36.1946 72.1641 36.423 72.7062C36.6513 73.2538 36.9013 73.7851 37.1732 74.3001L35.1128 78.3338C34.8627 78.8164 34.9714 79.3911 35.3356 79.7543L39.7825 84.1892C40.1794 84.585 40.7828 84.6555 41.2504 84.3898L45.2515 82.3567C45.7679 82.6278 46.3007 82.8772 46.8497 83.1049C47.3933 83.3326 47.9479 83.5278 48.5078 83.7067L49.9103 88.0062C50.0789 88.5212 50.5573 88.852 51.0737 88.852H57.3581C57.9289 88.852 58.4127 88.4616 58.5486 87.9303L59.924 83.7067C60.4839 83.5278 61.0385 83.3272 61.5875 83.1049ZM30.0029 14.8995L25.6593 13.7392C25.0069 13.5657 24.6155 12.8934 24.7895 12.2429C24.9635 11.5923 25.6376 11.2019 26.2899 11.3754L33.9062 13.414C34.5586 13.5875 34.95 14.2598 34.776 14.9104L32.7375 22.5062C32.5635 23.1568 31.8894 23.5472 31.2371 23.3737C30.5848 23.2002 30.1933 22.5279 30.3673 21.8773L31.7372 16.7701C29.5083 17.8436 27.3665 19.0744 25.3169 20.4514C22.5498 22.3109 19.9731 24.4309 17.6192 26.7839C15.2652 29.1315 13.1341 31.7068 11.2695 34.461C9.4158 37.2044 7.82286 40.1266 6.52357 43.1845C5.19711 46.3128 4.16965 49.5984 3.47923 53.0032C2.81056 56.305 2.45721 59.7424 2.45721 63.2772C2.45721 63.955 1.90814 64.5025 1.2286 64.5025C0.549066 64.5025 0 63.955 0 63.2772C0 59.6122 0.369676 56.0175 1.07639 52.526C1.79942 48.9531 2.87586 45.5103 4.26213 42.2356C5.63209 39.0043 7.30104 35.9465 9.23091 33.0892C11.1879 30.1941 13.4169 27.4995 15.8795 25.0488C18.3421 22.5928 21.0385 20.3699 23.9416 18.4181C25.8769 17.1278 27.8991 15.9514 30.0029 14.8995ZM36.3851 114.344L38.5976 118.166C38.9347 118.751 38.739 119.5 38.1519 119.836C37.5648 120.172 36.8145 119.977 36.4775 119.391L32.5362 112.582C32.1992 111.996 32.3949 111.248 32.982 110.912L39.81 106.981C40.3971 106.645 41.1473 106.84 41.4843 107.426C41.8214 108.011 41.6256 108.759 41.0385 109.095L36.4014 111.763C38.826 112.652 41.3376 113.362 43.9143 113.877C47.225 114.544 50.6717 114.897 54.2161 114.897C57.7605 114.897 61.2072 114.544 64.5179 113.877C67.9318 113.189 71.2263 112.164 74.363 110.841C74.9827 110.581 75.7003 110.874 75.9667 111.492C76.2276 112.11 75.9341 112.826 75.3143 113.091C72.0307 114.474 68.5788 115.547 64.9961 116.268C61.4952 116.973 57.8908 117.342 54.2159 117.342C50.541 117.342 46.9366 116.973 43.4357 116.268C41.0219 115.78 38.6683 115.135 36.3851 114.344ZM108.428 63.1031L111.907 59.6332C112.385 59.1561 113.163 59.1561 113.641 59.6332C114.12 60.1103 114.12 60.8856 113.641 61.3628L108.064 66.9254C107.585 67.4025 106.808 67.4025 106.329 66.9254L100.752 61.3628C100.273 60.8856 100.273 60.1103 100.752 59.6332C101.23 59.1561 102.007 59.1561 102.486 59.6332L105.965 63.1031C105.954 59.6332 105.601 56.2555 104.943 53.0026C104.253 49.5978 103.225 46.3122 101.899 43.1839C100.599 40.1261 99.0067 37.2037 97.1528 34.4603C95.2882 31.7006 93.1625 29.1308 90.8032 26.7833C88.4493 24.4357 85.867 22.3103 83.1054 20.4507C80.3546 18.602 77.4245 17.0133 74.3583 15.7175C73.7331 15.4573 73.445 14.7416 73.706 14.1182C73.9669 13.4947 74.6845 13.2073 75.3096 13.4676C78.5496 14.8338 81.6157 16.4983 84.4806 18.423C87.3836 20.3747 90.0854 22.5977 92.5482 25.0537C95.0108 27.5096 97.2343 30.1988 99.1967 33.0941C101.127 35.9513 102.796 39.0091 104.165 42.2404C105.552 45.5152 106.628 48.9578 107.351 52.5309C108.042 55.9629 108.417 59.4976 108.428 63.1031ZM57.9731 15.0452C58.37 14.7849 58.7397 14.4868 59.0767 14.1506C60.3216 12.909 61.0881 11.1958 61.0881 9.3036C61.0881 7.4114 60.3216 5.69811 59.0767 4.45658C57.8318 3.21506 56.1139 2.45057 54.2166 2.45057C52.3193 2.45057 50.6014 3.22046 49.3565 4.45658C48.1116 5.69815 47.3451 7.4114 47.3451 9.3036C47.3451 11.1958 48.1171 12.9091 49.3565 14.1506C49.6936 14.4868 50.0633 14.7849 50.4601 15.0452C51.6724 14.7578 52.9336 14.606 54.2166 14.606C55.4996 14.606 56.7608 14.7633 57.9731 15.0452ZM60.811 15.8856L60.7348 15.9615C62.643 16.7856 64.3826 17.9512 65.8559 19.3771C68.8567 22.2886 70.754 26.2952 70.754 30.6975V32.5192C70.754 32.8825 70.7376 33.262 70.7105 33.6578C70.6833 34.0373 70.6398 34.4168 70.5854 34.7909C70.4984 35.4035 69.9711 35.8427 69.3731 35.8427H39.0494C38.4025 35.8427 37.8752 35.3439 37.8263 34.715C37.7773 34.3626 37.7393 34.0102 37.7121 33.6523C37.6849 33.262 37.6686 32.8825 37.6686 32.5138V30.6921C37.6686 26.2896 39.5659 22.283 42.5667 19.3717C44.0399 17.9404 45.7796 16.7747 47.6877 15.956C47.6605 15.9289 47.6388 15.9073 47.6116 15.8801C45.921 14.1941 44.8772 11.8681 44.8772 9.3036C44.8772 6.73366 45.921 4.40787 47.6116 2.72705C49.3022 1.04097 51.629 0 54.2059 0C56.7827 0 59.1148 1.04097 60.8002 2.72705C62.4908 4.41314 63.5346 6.73907 63.5346 9.3036C63.5454 11.8735 62.5016 14.1993 60.811 15.8856ZM58.3048 17.6694C57.0707 18.2712 55.6845 18.6073 54.2167 18.6073C52.7488 18.6073 51.3626 18.2712 50.1286 17.6694C47.916 18.3471 45.91 19.5507 44.2845 21.1284C41.7404 23.5952 40.1312 26.9784 40.1312 30.6977V32.5194C40.1312 32.8284 40.142 33.1157 40.1583 33.3923H68.2692C68.2856 33.1157 68.2964 32.823 68.2964 32.5194V30.6977C68.2964 26.9784 66.6873 23.5952 64.143 21.1284C62.523 19.5507 60.5173 18.3471 58.3048 17.6694ZM95.6468 84.1399C96.0437 83.8796 96.4133 83.5815 96.7504 83.2453C97.9953 82.0037 98.7618 80.2905 98.7618 78.3983C98.7618 76.5061 97.9953 74.7928 96.7504 73.5513C95.5055 72.3097 93.7876 71.5453 91.8903 71.5453C89.993 71.5453 88.2751 72.3151 87.0302 73.5513C85.7853 74.7928 85.0188 76.5061 85.0188 78.3983C85.0188 80.2905 85.7908 82.0038 87.0302 83.2453C87.3673 83.5815 87.7369 83.8796 88.1338 84.1399C89.3461 83.8525 90.6073 83.7007 91.8903 83.7007C93.1733 83.7007 94.4291 83.8525 95.6468 84.1399ZM98.4846 84.9748C98.4574 85.0019 98.4357 85.0236 98.4085 85.0507C100.317 85.8748 102.056 87.0405 103.53 88.4663C106.53 91.3779 108.428 95.3845 108.428 99.7868V101.608C108.428 101.977 108.411 102.351 108.384 102.747C108.357 103.127 108.313 103.506 108.259 103.88C108.172 104.493 107.645 104.932 107.047 104.932L76.7287 104.937C76.0818 104.937 75.5544 104.439 75.5055 103.81C75.4566 103.457 75.4185 103.105 75.3913 102.747C75.3642 102.357 75.3478 101.977 75.3478 101.608V99.7868C75.3478 95.3843 77.2451 91.3777 80.2459 88.4664C81.7192 87.0351 83.4588 85.8694 85.367 85.0507L85.2908 84.9748C83.6002 83.2887 82.5564 80.9628 82.5564 78.3983C82.5564 75.8283 83.6002 73.5026 85.2908 71.8217C86.9815 70.1357 89.3083 69.0947 91.8851 69.0947C94.462 69.0947 96.7941 70.1357 98.4794 71.8217C100.17 73.5078 101.214 75.8283 101.214 78.3983C101.214 80.9682 100.17 83.294 98.4846 84.9748ZM95.9784 86.764C94.7444 87.3658 93.3582 87.702 91.8903 87.702C90.4225 87.702 89.0362 87.3658 87.8022 86.764C85.5897 87.4417 83.5837 88.6454 81.9582 90.2231C79.4195 92.6899 77.8048 96.073 77.8048 99.7923V101.614C77.8048 101.923 77.8157 102.21 77.832 102.487H105.943C105.959 102.21 105.97 101.918 105.97 101.614V99.7923C105.97 96.073 104.361 92.6899 101.817 90.2231C100.191 88.64 98.1855 87.4364 95.9784 86.764ZM12.7925 84.14C14.0048 83.8526 15.266 83.7008 16.549 83.7008C17.8319 83.7008 19.0931 83.8526 20.3054 84.14C20.7023 83.8797 21.072 83.5815 21.409 83.2454C22.6539 82.0038 23.4204 80.2906 23.4204 78.3984C23.4204 76.5062 22.6485 74.7929 21.409 73.5514C20.1641 72.3098 18.4462 71.5453 16.5489 71.5453C14.6516 71.5453 12.9337 72.3152 11.6888 73.5514C10.4439 74.7929 9.67742 76.5062 9.67742 78.3984C9.67742 80.2906 10.4439 82.0039 11.6888 83.2454C12.0205 83.5815 12.3902 83.8797 12.7925 84.14ZM20.6371 86.764C19.403 87.3658 18.0168 87.702 16.549 87.702C15.0811 87.702 13.6949 87.3658 12.4609 86.764C10.2483 87.4417 8.24234 88.6454 6.61684 90.2231C4.07268 92.6899 2.46346 96.073 2.46346 99.7923V101.614C2.46346 101.923 2.47433 102.21 2.49064 102.487H30.6015C30.6179 102.21 30.6287 101.918 30.6287 101.614V99.7923C30.6287 96.073 29.0196 92.6899 26.4753 90.2231C24.8553 88.64 22.8442 87.4364 20.6371 86.764Z" fill="#1ABCFF"/>
</svg>
