<svg width="121" height="120" viewBox="0 0 121 120" fill="none" xmlns="http://www.w3.org/2000/svg">
<path fill-rule="evenodd" clip-rule="evenodd" d="M45.3971 118.237C44.7984 118.516 44.1892 118.763 43.5589 118.968C38.8324 119.746 34.0428 120.083 29.2527 119.983C23.8539 119.983 19.8101 117.658 14.9989 117.353C14.5945 118.905 13.1976 119.988 11.5958 119.988H3.51344C1.57555 119.988 0.00524333 118.416 0 116.475V82.843C0.0052514 80.9024 1.57555 79.3298 3.51344 79.3246H11.6063C13.0243 79.3246 14.3057 80.1818 14.8519 81.4914C20.5028 81.2337 25.5077 77.7679 27.7449 72.5665C28.5589 70.5207 28.685 67.0443 28.79 63.831H22.4249C20.009 63.831 18.0554 61.8746 18.0502 59.4606V43.6409C18.0554 41.2269 20.009 39.2653 22.4249 39.2653H30.5651C31.1533 39.281 31.6837 38.9076 31.8675 38.3449C32.3559 36.9407 32.9283 35.5628 33.5743 34.2217C33.8421 33.6958 33.7318 33.0541 33.3064 32.6491L27.5452 26.8745C25.8384 25.1653 25.8384 22.3937 27.5452 20.6844L38.7052 9.50329H38.6999C40.4119 7.79935 43.1744 7.79935 44.8865 9.50329L50.6424 15.2727L50.6476 15.2674C51.052 15.6987 51.6927 15.8091 52.2179 15.5409C53.5571 14.894 54.9278 14.3208 56.3353 13.8317C56.8972 13.6476 57.2701 13.1165 57.2543 12.5274V4.37565C57.2543 1.96164 59.2132 0 61.6238 0H77.421C79.8316 0 81.7905 1.96164 81.7905 4.37565V12.5327C81.7747 13.1217 82.1476 13.6529 82.7095 13.837C84.1118 14.3261 85.4877 14.8993 86.8269 15.5462C87.352 15.8144 87.9928 15.7039 88.3972 15.2727L94.1584 9.50867C95.8652 7.80472 98.6328 7.80472 100.34 9.50867L111.5 20.6897C113.206 22.3989 113.206 25.1705 111.5 26.8851L105.738 32.6545V32.6493C105.313 33.0595 105.203 33.7011 105.471 34.2271C106.117 35.5629 106.689 36.9408 107.177 38.345C107.361 38.9078 107.892 39.2812 108.48 39.2654H116.625H116.62C119.036 39.2654 120.995 41.2218 121 43.641V59.4607C120.995 61.8747 119.041 63.8364 116.625 63.8364H108.485C107.892 63.8206 107.361 64.194 107.183 64.7567C106.694 66.161 106.122 67.5388 105.476 68.8799C105.208 69.4058 105.318 70.0475 105.744 70.4525L111.505 76.2165V76.2217C112.324 77.0422 112.786 78.1571 112.781 79.3142C112.786 80.4765 112.329 81.5914 111.51 82.4119L100.35 93.5877C98.6435 95.2969 95.8758 95.2969 94.1689 93.5877L88.3972 87.8183C87.9928 87.3923 87.3521 87.2818 86.8269 87.5501C85.4877 88.197 84.1118 88.7702 82.7095 89.2593C82.1476 89.4433 81.7747 89.9745 81.7905 90.5635V98.7206C81.7905 101.135 79.8316 103.096 77.421 103.096H66.2296C66.4712 105.016 65.8252 106.946 64.4703 108.329C63.9503 108.855 63.3359 109.276 62.6583 109.581C63.3358 110.627 63.6509 111.869 63.5511 113.11C63.5459 116.123 61.1038 118.564 58.0946 118.574H47.2707C46.63 118.574 45.9957 118.458 45.3971 118.237ZM60.8219 52.186L66.9664 58.3392C67.5546 58.9283 68.4999 58.9283 69.0881 58.3392L80.5263 46.8847C80.8152 46.606 80.9832 46.222 80.9885 45.8171C80.9937 45.4121 80.8362 45.023 80.5473 44.739C80.2637 44.455 79.8751 44.2972 79.4707 44.3024C79.0716 44.3024 78.683 44.4707 78.4046 44.7653L68.0325 55.1469L62.9489 50.0506L62.9436 50.0559C62.3555 49.4669 61.4049 49.4669 60.8167 50.0559C60.2338 50.6449 60.2337 51.6022 60.8219 52.186ZM69.5241 26.5783C62.9121 26.5783 56.5681 29.2079 51.889 33.8939C47.2149 38.5799 44.5891 44.9329 44.5891 51.554C44.5891 58.1806 47.2149 64.5284 51.8942 69.2141C56.5736 73.8949 62.9176 76.5244 69.5293 76.5244C76.1465 76.5244 82.4853 73.8896 87.1644 69.2089C91.8385 64.5229 94.4643 58.1699 94.4643 51.5434C94.4643 44.922 91.8385 38.569 87.1591 33.8886C82.4798 29.2026 76.141 26.5731 69.5241 26.5731V26.5783ZM85.0429 36.0133C80.9255 31.8953 75.3482 29.5814 69.5293 29.5814C63.7052 29.5814 58.1278 31.8955 54.0104 36.0133C49.8983 40.1365 47.5876 45.727 47.5876 51.5543C47.5876 57.3816 49.8984 62.9668 54.0104 67.0899C58.1278 71.2078 63.7051 73.5271 69.5293 73.5271C75.3482 73.5271 80.9256 71.2077 85.0429 67.0899C89.155 62.9666 91.4657 57.3814 91.4657 51.5543C91.4657 45.7271 89.1549 40.1365 85.0429 36.0133ZM28.907 60.832C29.0541 58.1708 29.4585 55.0626 31.0813 54.542C38.2184 52.2226 43.2075 59.9536 43.3179 66.2384C43.3862 70.2932 43.8536 74.732 43.9901 78.8131C44.8882 78.3082 45.8965 78.0453 46.9258 78.0453H59.3041C62.6285 78.0505 65.3227 80.7485 65.3279 84.0776V84.6982C65.3279 86.2391 64.7397 87.717 63.6788 88.8372C65.2806 89.9626 66.2364 91.8033 66.2364 93.7651V94.3857V94.3804C66.2364 96.1213 65.4854 97.7726 64.1777 98.9139C64.5716 99.261 64.9235 99.6607 65.2123 100.097H77.4121C78.1736 100.092 78.788 99.4766 78.788 98.7193V90.5571C78.7828 88.6953 79.9591 87.0334 81.7237 86.4286C83.0157 85.971 84.2865 85.4451 85.5207 84.8508C87.196 84.0304 89.2022 84.3722 90.5098 85.6975L96.271 91.4615C96.8067 91.998 97.6785 91.998 98.2194 91.4615L109.379 80.2857H109.374C109.637 80.028 109.778 79.6757 109.778 79.3128H109.789C109.789 78.9446 109.642 78.5975 109.385 78.3346L103.623 72.5705C102.305 71.261 101.964 69.2467 102.783 67.5744C103.377 66.3332 103.907 65.0605 104.359 63.7667C104.963 62.0049 106.622 60.8216 108.487 60.8321H116.632H116.627C117.383 60.8268 117.997 60.2168 118.003 59.4595V43.6398C118.003 42.8825 117.388 42.262 116.627 42.262H108.487C106.622 42.2725 104.963 41.0892 104.359 39.3273C103.907 38.0283 103.382 36.7609 102.783 35.5197C101.969 33.8472 102.305 31.8382 103.629 30.5235L109.39 24.7595C109.926 24.2178 109.926 23.3447 109.39 22.8083L98.2299 11.6325C97.689 11.0961 96.8224 11.0961 96.2815 11.6325L90.5203 17.4019C89.2126 18.7272 87.2065 19.0639 85.5312 18.2434C84.2971 17.6491 83.0261 17.1232 81.7342 16.6656C79.9749 16.0608 78.7933 14.3989 78.8037 12.5371V4.37486C78.7985 3.61753 78.184 3.00225 77.4278 2.997H61.6306C60.8744 3.00226 60.26 3.61759 60.2547 4.37486V12.5319C60.2652 14.3936 59.0836 16.0556 57.3242 16.6603C56.0271 17.1179 54.7614 17.6438 53.522 18.2381C51.8519 19.0586 49.8457 18.722 48.5329 17.3967L42.7717 11.6273H42.7769C42.236 11.0908 41.3694 11.0908 40.8286 11.6273L29.6686 22.8031C29.1329 23.3395 29.1329 24.2126 29.6686 24.7542L35.4244 30.5182H35.4297C36.7531 31.833 37.0893 33.8421 36.27 35.5144C35.6765 36.7556 35.1461 38.0283 34.6892 39.3273C34.0852 41.0891 32.4257 42.2725 30.5613 42.262H22.4264C21.6648 42.2672 21.0504 42.8825 21.0452 43.6398V59.4595C21.0505 60.2168 21.6649 60.8321 22.4264 60.8373L28.907 60.832ZM31.827 62.252C31.701 66.0386 31.6747 70.7771 30.5141 73.6803C27.8567 79.9229 21.8907 84.1093 15.1216 84.4774V114.354C20.2315 114.654 24.4801 116.994 29.2544 117C33.7552 117.089 38.2558 116.779 42.6988 116.079C42.0266 115.038 41.7167 113.802 41.8165 112.566C41.8165 110.983 42.5045 109.479 43.7018 108.443C42.4992 107.307 41.8165 105.724 41.8165 104.067V103.447C41.8165 101.906 42.4047 100.428 43.4604 99.3077C41.8638 98.177 40.9081 96.3415 40.9081 94.3798L40.9133 93.4857C39.0385 95.8945 36.4703 97.6615 33.5504 98.5503C32.7731 98.8185 31.9224 98.4083 31.6544 97.6247C31.3866 96.8463 31.8015 95.9944 32.5787 95.726C38.5395 93.6591 40.4721 89.1993 40.9132 83.6982C41.3071 78.1498 40.4248 72.1174 40.3303 66.2791C40.262 62.1821 37.1687 56.0447 32.3686 57.2754C31.959 58.9004 31.7751 60.5728 31.8329 62.2453L31.827 62.252ZM58.0962 110.1H47.2723C45.9121 110.105 44.8145 111.205 44.8093 112.567C44.6885 113.398 44.9563 114.239 45.534 114.844C45.9962 115.307 46.6211 115.57 47.2724 115.57H58.0962C59.4512 115.564 60.5488 114.465 60.554 113.108C60.6801 112.277 60.4122 111.436 59.8345 110.826C59.3724 110.363 58.7474 110.1 58.0962 110.1ZM60.2178 100.413H47.8395C46.1694 100.423 44.8145 101.775 44.8093 103.447C44.6675 104.457 44.9983 105.472 45.7021 106.208C46.2692 106.776 47.036 107.097 47.8395 107.102H60.2178C61.8878 107.092 63.2375 105.74 63.248 104.068C63.311 103.431 63.2218 102.79 62.9802 102.201C62.4865 101.117 61.4099 100.418 60.2178 100.413ZM59.3093 90.7252L46.931 90.7305C45.2609 90.7358 43.906 92.0926 43.9007 93.7598C43.7589 94.7696 44.0845 95.7898 44.7935 96.5209C45.6128 97.2782 46.7419 97.6043 47.8395 97.415H60.2178C61.8879 97.4097 63.2375 96.0529 63.248 94.3804C63.3898 93.3707 63.059 92.3556 62.3552 91.6193C61.5307 90.8673 60.4069 90.5359 59.3093 90.7305V90.7252ZM11.6084 82.3263H3.51548C3.23188 82.3263 3.00081 82.5577 3.00081 82.8417V116.474C3.00081 116.758 3.2319 116.989 3.51548 116.994H11.6084C11.892 116.989 12.123 116.758 12.1283 116.474V82.8417C12.123 82.5577 11.892 82.3263 11.6084 82.3263ZM59.3093 81.0483L46.931 81.043C45.513 81.0483 44.2894 82.0318 43.969 83.4097L43.8955 84.6929V84.6982C43.906 86.3706 45.2557 87.7274 46.931 87.7327H59.3093C60.9794 87.7222 62.329 86.3706 62.3343 84.6982C62.4761 83.6884 62.1505 82.6734 61.4415 81.9423C60.8796 81.3691 60.1128 81.0482 59.3093 81.043L59.3093 81.0483Z" fill="#1ABCFF"/>
</svg>
