<svg width="120" height="120" viewBox="0 0 120 120" fill="none" xmlns="http://www.w3.org/2000/svg">
<path d="M117.586 97.0089C117.684 97.8151 117.119 98.5426 116.313 98.6458L104.083 100.18C104.019 100.194 103.955 100.194 103.896 100.194C103.169 100.194 102.539 99.6536 102.451 98.9114L100.917 86.6814C100.819 85.8752 101.384 85.1476 102.19 85.0445C102.996 84.9461 103.724 85.5114 103.827 86.3176L104.948 95.2147C112.788 85.2116 117.089 72.7802 117.089 60.0189C117.07 28.5253 91.475 2.9297 60.0004 2.9297C47.2392 2.9297 35.1726 7.044 25.1055 14.8352C24.4616 15.3267 23.5473 15.2137 23.0558 14.5697C22.5642 13.9258 22.6773 13.0115 23.3212 12.5199C33.9044 4.33061 46.5861 0 60.0005 0C76.0297 0 91.0963 6.24273 102.432 17.5784C113.757 28.9039 120 43.9705 120 59.9999C120 73.3413 115.532 86.3278 107.377 96.8228L115.945 95.7413C116.756 95.6381 117.483 96.2028 117.586 97.0089ZM95.1465 104.972C85.0302 112.886 72.8744 117.079 59.9999 117.079C28.5253 117.069 2.92989 91.4735 2.92989 60C2.92989 47.3029 7.18183 34.9304 14.9484 24.9514L15.6907 33.6717C15.7546 34.4778 16.4722 35.0677 17.2784 35.0038C18.0845 34.9399 18.6744 34.2222 18.6105 33.4161L17.5684 21.1223C17.5291 20.734 17.3521 20.3801 17.0523 20.1294C16.7524 19.8787 16.3739 19.7509 15.9807 19.7902L3.68693 20.8323C2.88078 20.8962 2.27616 21.6138 2.35481 22.42C2.41871 23.2261 3.13637 23.816 3.9425 23.7521L12.7512 23.0099C4.51758 33.5341 0 46.5996 0 60.0001C0 76.0295 6.2427 91.0961 17.5783 102.432C28.9037 113.757 43.9703 120 59.9995 120C73.5422 120 86.3123 115.596 96.9443 107.279C97.5883 106.778 97.6866 105.858 97.195 105.229C96.6936 104.585 95.7744 104.472 95.1452 104.974L95.1465 104.972ZM43.0521 23.781C43.0521 18.4721 47.3679 14.1415 52.6668 14.1415C55.5129 14.1415 58.1919 15.4392 60.0008 17.5628C61.8146 15.4344 64.4936 14.1415 67.3348 14.1415C72.6337 14.1415 76.9495 18.4721 76.9495 23.781C76.9495 30.5498 69.8663 36.7537 64.1795 41.7382C63.3881 42.4313 62.6311 43.0949 61.9381 43.7142C61.3826 44.2156 60.6945 44.4712 60.0013 44.4712C59.3082 44.4712 58.6151 44.2205 58.0645 43.7142C57.3862 43.0998 56.6292 42.4313 55.8231 41.7382C50.1359 36.7588 43.0521 30.5553 43.0521 23.781ZM45.9817 23.781C45.9817 29.2274 52.7898 35.1802 57.7594 39.536C58.5508 40.2291 59.3078 40.8927 60.0008 41.5219C60.6939 40.8927 61.4459 40.2389 62.2422 39.536C67.2118 35.1809 74.0199 29.2281 74.0199 23.781C74.0199 20.0796 71.0264 17.0615 67.3397 17.0615C64.7984 17.0615 62.4438 18.546 61.3231 20.8514C61.0822 21.3528 60.5661 21.6674 60.0008 21.6674C59.4355 21.6674 58.9292 21.3528 58.6785 20.8514C57.5578 18.5509 55.1934 17.0615 52.6619 17.0615C48.9753 17.0615 45.9817 20.0698 45.9817 23.781ZM101.085 74.382C100.682 74.382 100.279 74.3328 99.8757 74.2198C98.8582 73.9445 98.0028 73.3399 97.3834 72.5091L96.3512 73.099C95.2943 73.7036 94.5275 74.3721 93.7705 75.3257C93.043 76.2449 92.173 76.9872 91.2045 77.5671C92.1237 78.334 92.802 79.3663 93.1166 80.5509C93.5197 82.0747 93.3182 83.6576 92.5366 85.0192C91.3274 87.1084 89.0368 88.1799 86.7756 87.9243C86.9034 89.1335 86.6626 90.3771 86.0186 91.4831C85.2371 92.8398 83.9689 93.8132 82.4302 94.226C81.2603 94.5406 80.0659 94.4915 78.955 94.0982C78.9795 95.1551 78.7289 96.2267 78.1734 97.195C76.7283 99.6971 73.7051 100.744 71.0754 99.8002C71.1 100.857 70.8493 101.929 70.2938 102.882C69.1977 104.785 67.2118 105.851 65.1866 105.851C64.2182 105.851 63.2252 105.601 62.3307 105.084L60.0006 103.743L58.0393 104.873C57.1349 105.389 56.1272 105.665 55.1097 105.665C54.5936 105.665 54.0774 105.601 53.5613 105.463C52.0375 105.06 50.7692 104.077 49.9729 102.72C49.4174 101.762 49.1913 100.72 49.206 99.702C48.4146 100.08 47.5691 100.282 46.7138 100.282C46.1977 100.282 45.6816 100.218 45.1654 100.08C43.6416 99.6774 42.3733 98.6942 41.577 97.3376C40.9969 96.3446 40.7708 95.2484 40.8102 94.1769C40.2449 94.3538 39.6501 94.4522 39.0602 94.4522C38.5441 94.4522 38.028 94.3883 37.5118 94.2506C35.988 93.8475 34.7197 92.8644 33.9234 91.5077C33.2696 90.387 33.0534 89.1433 33.1812 87.9341C32.9649 87.9587 32.7388 87.9735 32.5274 87.9735C30.4874 87.9735 28.5016 86.9166 27.4201 85.0291C25.975 82.5123 26.6042 79.3811 28.7523 77.577C27.7692 76.997 26.904 76.2547 26.1863 75.3356C25.4293 74.3771 24.6625 73.7134 23.6056 73.1089L22.5734 72.519C21.9589 73.3498 21.0987 73.9642 20.0811 74.2297C19.6781 74.328 19.275 74.3919 18.8719 74.3919C18.0805 74.3919 17.2842 74.1756 16.5813 73.7775L11.7345 70.9853C10.6629 70.3709 9.91086 69.3731 9.59627 68.1932C9.28167 66.9987 9.44389 65.7649 10.0485 64.6934L24.6482 39.4124C25.2627 38.3408 26.2605 37.5888 27.4403 37.2742C28.6348 36.9596 29.8686 37.1218 30.9401 37.7264L35.7869 40.5185C37.8269 41.7032 38.6035 44.2199 37.6892 46.3337L41.9657 48.8012C44.0154 49.9859 46.1291 50.3103 48.4443 49.7942C52.2047 48.9487 56.1224 49.0372 59.809 50.0449C61.5098 49.1404 63.4711 48.6586 65.7126 48.6882C67.3838 48.7128 69.237 49.0028 71.2229 49.5583C73.6512 50.2366 75.991 49.9466 78.1685 48.6882L82.2435 46.3336C81.3243 44.2199 82.1059 41.7031 84.1458 40.5185L88.9926 37.7264C91.1947 36.4533 94.0114 37.2103 95.2845 39.4124L109.884 64.6934C110.499 65.765 110.666 66.9938 110.336 68.1932C110.022 69.3877 109.255 70.3806 108.198 70.9853L103.351 73.7774C102.673 74.1706 101.891 74.382 101.085 74.382ZM20.3762 70.6068L34.9759 45.3258C35.4429 44.5197 35.1627 43.4875 34.3615 43.0352L29.5147 40.2431C29.264 40.0907 28.974 40.017 28.684 40.017C28.5316 40.017 28.3939 40.0416 28.2416 40.0809C27.7992 40.1939 27.4502 40.4692 27.2241 40.8624L12.6243 66.1434C12.3982 66.5318 12.3491 66.9889 12.4621 67.4166C12.5752 67.859 12.8504 68.208 13.2437 68.4341L18.0905 71.2262C18.4788 71.4523 18.9359 71.5014 19.3636 71.3884C19.7961 71.2753 20.1452 70.9952 20.3762 70.6068ZM34.0409 84.6504L44.5504 78.5846C45.2288 78.1963 45.7203 77.5524 45.9218 76.7855C46.1233 76.0187 46.0201 75.2125 45.6318 74.5341C45.0763 73.5756 44.0834 73.0496 43.0511 73.0496C42.5497 73.0496 42.0434 73.1774 41.5666 73.4527L31.0571 79.5185C29.6365 80.3345 29.1548 82.1631 29.9757 83.569C30.8064 84.9896 32.6154 85.4664 34.0409 84.6504ZM40.5442 91.1291L51.0537 85.0633C52.4645 84.2473 52.956 82.4335 52.1352 81.0128C51.3192 79.5922 49.4905 79.1105 48.0847 79.9314L37.5752 85.9972C36.1644 86.8132 35.6729 88.627 36.4938 90.0477C36.8821 90.726 37.526 91.2176 38.2929 91.4191C39.0744 91.6206 39.8659 91.5224 40.5442 91.1291ZM48.1977 96.9442L57.0703 91.8222C58.4909 91.0062 58.9726 89.1776 58.1517 87.7717C57.7634 87.0934 57.1195 86.6018 56.3526 86.4003C55.5858 86.1988 54.7796 86.302 54.1012 86.6904L45.2287 91.8124C43.8081 92.6284 43.3264 94.457 44.1472 95.8629C44.5356 96.5412 45.1795 97.0328 45.9463 97.2343C46.7132 97.4506 47.5144 97.3375 48.1977 96.9442ZM63.1309 98.5565C64.5515 97.7405 65.0332 95.9119 64.2123 94.506C63.3963 93.0854 61.5677 92.6037 60.1619 93.4246L53.6046 97.2144C52.184 98.0304 51.7023 99.8591 52.5231 101.265C52.9115 101.943 53.5554 102.435 54.3222 102.636C55.0891 102.838 55.8952 102.735 56.5736 102.346L63.1309 98.5565ZM67.2354 97.7651C66.8077 99.1119 65.9131 100.321 64.5908 101.088L62.9293 102.047L63.8239 102.563C65.1708 103.344 66.9944 102.828 67.8007 101.432C68.4938 100.228 68.2283 98.6941 67.2354 97.7651ZM90.2989 81.318C90.0974 80.5511 89.6059 79.9072 88.9276 79.5188L69.4617 68.2818L69.4224 68.2425C67.2447 67.7264 65.2589 66.6203 63.7449 64.9983L61.9311 65.3374V66.1042C61.9311 69.614 60.3827 72.5829 57.8021 74.0429C56.7944 74.6082 55.7278 74.8982 54.6954 74.8982C53.791 74.8982 52.9357 74.6819 52.2032 74.2297C50.7826 73.3744 49.9863 71.8014 50.0403 69.8991L49.9764 60.7119C49.9616 58.1706 51.9032 54.8869 54.307 53.3877L56.1208 52.2571C53.7908 51.9818 51.4264 52.0949 49.1113 52.611C46.0932 53.2894 43.2077 52.8519 40.5287 51.3034L36.3013 48.8604L24.1059 69.9874L25.089 70.5527C26.4604 71.3441 27.5173 72.2634 28.5003 73.512C29.3556 74.5934 30.4271 75.3111 31.7593 75.7141L40.1009 70.8969C42.9176 69.2747 46.5305 70.2431 48.1526 73.0499C48.7817 74.146 49.0226 75.3799 48.8801 76.6235C51.1461 76.3728 53.4466 77.4296 54.6558 79.5286C55.3489 80.7378 55.5504 82.0945 55.3489 83.3676C55.9289 83.3431 56.5188 83.3824 57.0988 83.5446C58.6225 83.9477 59.8909 84.9308 60.6872 86.2875C61.3802 87.4967 61.5818 88.8288 61.3802 90.1119C63.5087 90.0234 65.6076 91.0557 66.7431 93.0317C66.9839 93.4446 67.1462 93.887 67.2838 94.3294L71.6144 96.8314C73.035 97.6474 74.8488 97.1608 75.6649 95.75C76.4218 94.4523 76.0679 92.7564 74.8734 91.8618L73.3397 90.9672C72.6368 90.5641 72.396 89.6695 72.799 88.9666C73.2021 88.2637 74.0967 88.0228 74.7996 88.4259L79.4448 91.1049C80.1231 91.4932 80.9293 91.6062 81.6961 91.3949C82.463 91.1933 83.1069 90.7018 83.4952 90.0235C84.2522 88.7159 83.8983 87.0299 82.7038 86.1353L79.961 84.5476C79.258 84.1445 79.0172 83.25 79.4202 82.547C79.8233 81.8441 80.7179 81.6032 81.4208 82.0063L85.953 84.6214C87.3736 85.4374 89.1874 84.9507 90.0035 83.5399C90.4016 82.8911 90.5152 82.0848 90.2989 81.318ZM94.9049 70.5676L95.888 70.0023L83.6925 48.8752L79.6667 51.2052C76.7714 52.8765 73.6747 53.2698 70.455 52.3653C68.7198 51.8738 67.1223 51.6231 65.6968 51.5985C63.7355 51.5837 62.138 51.977 60.7763 52.8323L55.8558 55.9045C54.3565 56.8336 52.8966 59.2274 52.9114 60.7218L52.9753 69.9335V69.9827C52.9507 70.8527 53.2014 71.4427 53.7176 71.7573C54.3861 72.1603 55.4282 72.0719 56.372 71.5311C57.1634 71.0789 59.0166 69.6583 59.0166 66.1338V64.1578C59.0166 63.4548 59.518 62.8502 60.2111 62.7224L64.0501 61.9949C64.5909 61.8966 65.1316 62.0932 65.4707 62.5258C67.3436 64.9296 70.3764 66.0601 73.5765 65.5588C74.3679 65.431 75.1249 65.9717 75.2477 66.7778C75.3214 67.2547 75.1346 67.6971 74.8201 68.0116L88.2193 75.7487C89.5514 75.3358 90.6378 74.6181 91.4782 73.5465C92.4663 72.2685 93.5235 71.3639 94.9049 70.5676ZM100.646 71.3885C101.089 71.5015 101.541 71.4524 101.919 71.2262L106.766 68.4341C107.154 68.208 107.435 67.8443 107.548 67.4166C107.661 66.9742 107.612 66.5367 107.385 66.1435L92.7857 40.8625C92.3188 40.0564 91.2865 39.7811 90.4951 40.2481L85.6483 43.0402C84.8422 43.5072 84.5669 44.5394 85.0339 45.3308L99.6336 70.6118C99.8548 70.9952 100.204 71.2754 100.646 71.3885Z" fill="#1ABCFF"/>
</svg>
