<svg width="90" height="120" viewBox="0 0 90 120" fill="none" xmlns="http://www.w3.org/2000/svg">
<path d="M90 44.8475C90 20.1163 69.81 0 45 0C20.1846 0 0 20.1163 0 44.8475C0 63.2397 11.169 79.0742 27.0993 85.9868C26.5296 86.6743 26.1742 87.5442 26.1742 88.4974V92.2685C26.1742 93.2842 26.5714 94.2061 27.2038 94.9094C26.5714 95.6125 26.1742 96.5345 26.1742 97.5502V101.321C26.1742 102.337 26.5714 103.259 27.2038 103.962C26.5714 104.665 26.1742 105.587 26.1742 106.603V110.374C26.1742 112.567 27.9616 114.354 30.162 114.354H33.9094C34.7352 117.594 39.303 120 45 120C50.6969 120 55.2648 117.594 56.0906 114.354H59.8379C62.0382 114.354 63.8258 112.572 63.8258 110.374V106.603C63.8258 105.587 63.4286 104.665 62.7962 103.962C63.4286 103.259 63.8258 102.337 63.8258 101.321V97.5502C63.8258 96.5345 63.4286 95.6126 62.7962 94.9094C63.4286 94.2062 63.8258 93.2842 63.8258 92.2685V88.4974C63.8258 87.539 63.4704 86.6691 62.9007 85.9868C78.8306 79.0748 90 63.2397 90 44.8475ZM59.8381 87.1949C60.5593 87.1949 61.1499 87.7835 61.1499 88.5023V92.2734C61.1499 92.9922 60.5593 93.5808 59.8381 93.5808H30.1672C29.446 93.5808 28.8554 92.9922 28.8554 92.2734V88.5023C28.8554 87.7835 29.446 87.1949 30.1672 87.1949H59.8381ZM61.1499 106.612V110.384C61.1499 111.108 60.5593 111.696 59.8381 111.696H30.1672C29.446 111.696 28.8554 111.108 28.8554 110.384V106.612C28.8554 105.894 29.446 105.305 30.1672 105.305H59.8381C60.5593 105.305 61.1499 105.894 61.1499 106.612ZM36.7841 114.363H53.2158C52.2175 115.92 49.1182 117.342 44.9998 117.342C40.8762 117.342 37.7824 115.92 36.7841 114.363ZM61.1499 97.559V101.33C61.1499 102.049 60.5593 102.638 59.8381 102.638H30.1672C29.446 102.638 28.8554 102.049 28.8554 101.33V97.559C28.8554 96.8402 29.446 96.2516 30.1672 96.2516H59.8381C60.5593 96.2516 61.1499 96.8402 61.1499 97.559ZM56.0333 29.2616C59.8747 29.1002 63.4601 30.5638 65.8747 33.3245C68.4043 36.2154 69.3398 40.2521 68.5193 44.6899C65.7493 59.5924 47.8116 65.9316 45.0005 66.837C42.1886 65.9307 24.2619 59.6124 21.487 44.6899C20.6612 40.2521 21.602 36.2153 24.1316 33.3245C26.4155 30.715 29.75 29.2512 33.3563 29.2512C33.5601 29.2512 33.7691 29.2565 33.973 29.2669C38.4625 29.4752 42.6437 32.9338 43.7046 37.3196C43.8509 37.9186 44.3893 38.3405 45.006 38.3405C45.6227 38.3405 46.161 37.9186 46.3074 37.3196C47.3683 32.9338 51.5495 29.4701 56.039 29.2669L56.0333 29.2616ZM36.3918 84.526C35.6915 81.2132 34.573 77.5619 33.1724 73.9888C38.6184 73.1085 43.27 70.7437 44.9946 69.7802C46.7246 70.7438 51.3761 73.1086 56.8168 73.9888C55.4161 77.5672 54.2976 81.2133 53.5974 84.526H36.387H36.3918ZM59.3675 84.526H56.3466C57.0731 81.3175 58.202 77.7547 59.5975 74.2908C63.8414 74.5304 68.3308 73.6449 72.1566 70.4364C76.0765 67.1497 78.4963 63.0191 78.6269 59.3939C78.6949 57.4563 78.0938 55.8051 76.8813 54.6331C75.8151 53.6018 74.4771 53.1538 73.0189 53.3101C68.8065 53.7789 64.7663 59.0813 62.7333 62.1963C61.0243 64.8162 59.3571 68.0196 57.8936 71.4052C54.1097 70.8896 50.634 69.5354 48.371 68.4779C54.6114 66.0507 68.5556 59.1491 71.1526 45.1734C72.13 39.9178 70.9749 35.0893 67.8965 31.5684C64.9436 28.1932 60.5638 26.3805 55.9175 26.5992C51.381 26.8075 47.2103 29.5161 45.0048 33.4123C42.7993 29.5161 38.6338 26.8076 34.0972 26.5992C29.4456 26.3804 25.0659 28.1982 22.1182 31.5684C19.045 35.0842 17.8848 39.918 18.8621 45.1734C21.4597 59.1532 35.4088 66.0551 41.6491 68.4779C39.3861 69.5353 35.9157 70.8948 32.1265 71.4104C30.6631 68.0247 28.9959 64.8162 27.2868 62.1961C25.2538 59.0813 21.2136 53.7788 17.0012 53.31C15.5483 53.1537 14.1997 53.6016 13.1388 54.633C11.9263 55.8102 11.32 57.4561 11.3932 59.3938C11.5239 63.0191 13.9436 67.1444 17.8635 70.4362C21.6893 73.6447 26.1787 74.5303 30.4174 74.2907C31.8129 77.7597 32.9418 81.3172 33.6683 84.5259H30.6474C14.3616 78.6505 2.69049 63.0815 2.69049 44.8507C2.69049 21.5889 21.6776 2.67008 45.0145 2.67008C68.3555 2.67008 87.3386 21.5929 87.3386 44.8507C87.3386 63.0868 75.6679 78.6507 59.3817 84.5259L59.3675 84.526ZM60.7263 71.6135C62.0434 68.6654 63.4963 65.9048 64.9703 63.6493C67.9023 59.1541 71.1008 56.206 73.3117 55.956C73.9702 55.8831 74.519 56.0706 75.0103 56.5394C75.6792 57.1853 75.9928 58.1125 75.951 59.2948C75.8465 62.1388 73.7351 65.6182 70.4319 68.3893C67.5835 70.7749 64.2124 71.6135 60.8884 71.6135H60.7263ZM29.2733 71.6187C25.9127 71.5979 22.4685 70.8166 19.5678 68.3893C16.2646 65.6182 14.1532 62.1388 14.0487 59.2948C14.0068 58.1124 14.3204 57.1853 14.9842 56.5394C15.4023 56.1331 15.8622 55.9352 16.4058 55.9352C16.4946 55.9352 16.5887 55.9404 16.688 55.9508C18.8988 56.2008 22.0974 59.1437 25.0295 63.6389C26.5034 65.8943 27.9615 68.6601 29.2734 71.6083L29.2733 71.6187Z" fill="#1ABCFF"/>
</svg>
