<svg width="119" height="120" viewBox="0 0 119 120" fill="none" xmlns="http://www.w3.org/2000/svg">
<path d="M107.075 61.2265C107.646 63.9931 110.062 66.0771 112.972 66.0771C116.297 66.0771 119 63.3512 119 59.9986C119 56.6459 116.297 53.92 112.972 53.92C110.062 53.92 107.631 56.0091 107.075 58.7706H60.7164V48.5703H89.2135C89.5369 48.5703 89.8603 48.4378 90.0826 48.2034L103.876 33.9117C104.806 34.5129 105.918 34.8747 107.11 34.8747C110.435 34.8747 113.138 32.1488 113.138 28.7961C113.138 25.4434 110.435 22.7176 107.11 22.7176C103.786 22.7176 101.082 25.4434 101.082 28.7961C101.082 30.0597 101.471 31.2367 102.118 32.1997L88.6928 46.1353H60.7157V35.9502H69.3458C69.745 35.9502 70.1239 35.7566 70.3412 35.4152L81.4926 19.0196C82.2151 19.3202 83.0085 19.4883 83.832 19.4883C87.1567 19.4883 89.86 16.7625 89.86 13.4098C89.86 10.0571 87.1568 7.3313 83.832 7.3313C80.5072 7.3313 77.804 10.0571 77.804 13.4098C77.804 15.0403 78.4508 16.5127 79.4967 17.6083L68.6939 33.4848H60.7005V31.5282C60.7005 30.8506 60.1548 30.3003 59.4827 30.3003C51.6207 30.3003 44.2337 33.3931 38.6703 39.0028C33.1072 44.6125 30.0402 52.0619 30.0402 59.9897C30.0402 67.9177 33.1072 75.3667 38.6703 80.9767C44.2334 86.5864 51.6208 89.6792 59.4827 89.6792C60.1548 89.6792 60.7005 89.1289 60.7005 88.4512V86.4947H68.6939L79.4967 102.371C78.4508 103.467 77.804 104.939 77.804 106.57C77.804 109.922 80.5072 112.648 83.832 112.648C87.1568 112.648 89.86 109.922 89.86 106.57C89.86 103.217 87.1568 100.491 83.832 100.491C83.0034 100.491 82.2151 100.659 81.4926 100.96L70.3412 84.5643C70.1088 84.2229 69.745 84.0293 69.3458 84.0293H60.7157V73.8441H88.6928L102.134 87.785C101.472 88.7633 101.098 89.9249 101.098 91.1886C101.098 94.5411 103.801 97.2671 107.126 97.2671C110.45 97.2671 113.154 94.5413 113.154 91.1886C113.154 87.836 110.451 85.11 107.126 85.11C105.933 85.11 104.822 85.4769 103.892 86.073L90.0774 71.7917C89.845 71.5573 89.5317 71.4249 89.2083 71.4249L60.7164 71.43V61.2296L107.075 61.2265ZM112.972 56.3708C114.953 56.3708 116.57 58.0012 116.57 59.9984C116.57 61.9956 114.953 63.6261 112.972 63.6261C110.991 63.6261 109.375 61.9956 109.375 59.9984C109.375 58.0012 110.991 56.3708 112.972 56.3708ZM107.111 25.1838C109.092 25.1838 110.708 26.8143 110.708 28.8115C110.708 30.8087 109.092 32.4391 107.111 32.4391C105.13 32.4391 103.513 30.8087 103.513 28.8115C103.518 26.8143 105.135 25.1838 107.111 25.1838ZM83.8279 9.79646C85.8085 9.79646 87.4254 11.4269 87.4254 13.4241C87.4254 15.4213 85.8085 17.0518 83.8279 17.0518C81.8473 17.0518 80.2304 15.4213 80.2304 13.4241C80.2355 11.4269 81.8523 9.79646 83.8279 9.79646ZM58.2812 87.2068C51.5156 86.9062 45.2052 84.1141 40.3947 79.2482C35.2965 74.1073 32.4771 67.2595 32.4771 59.983C32.4771 52.7066 35.2864 45.87 40.3947 40.7178C45.205 35.8672 51.5209 33.0599 58.2812 32.7592V87.2068ZM87.4251 106.579C87.4251 108.576 85.8082 110.207 83.8276 110.207C81.847 110.207 80.2301 108.576 80.2301 106.579C80.2301 104.582 81.847 102.951 83.8276 102.951C85.8235 102.951 87.4251 104.582 87.4251 106.579ZM110.708 91.1864C110.708 93.1836 109.091 94.8141 107.111 94.8141C105.13 94.8141 103.513 93.1836 103.513 91.1864C103.513 89.1892 105.13 87.5588 107.111 87.5588C109.091 87.5588 110.708 89.1892 110.708 91.1864ZM59.4984 94.6307C50.3278 94.6307 41.6973 91.0285 35.2052 84.4813C28.7131 77.9341 25.1402 69.2465 25.1402 59.9843C25.1402 50.7214 28.7125 42.0339 35.2052 35.4874C41.6979 28.9409 50.3133 25.338 59.4984 25.338C60.1704 25.338 60.7161 24.7877 60.7161 24.1101V1.22793C60.7161 0.550278 60.1704 0 59.4984 0C57.2096 0 54.8802 0.132469 52.6065 0.402508C49.8528 0.728595 47.7307 2.71055 47.2102 5.45177C46.331 10.0934 44.0774 13.395 40.8741 14.7402C37.6807 16.0699 33.775 15.3516 29.8945 12.7072C27.5905 11.143 24.7053 11.2449 22.5326 12.9925C18.9249 15.8763 15.6508 19.1882 12.791 22.8414C11.0731 25.0323 10.9669 27.9416 12.5182 30.2497C15.1455 34.1627 15.8529 38.091 14.5241 41.3112C13.2054 44.5314 9.95651 46.7884 5.37868 47.6902C2.66025 48.2252 0.694778 50.3652 0.386537 53.142C-0.128846 57.7072 -0.128846 62.3235 0.386537 66.8885C0.694752 69.6654 2.6653 71.8053 5.37868 72.3403C9.95651 73.2421 13.2054 75.5095 14.5241 78.7194C15.8428 81.9395 15.1304 85.8678 12.5182 89.7809C10.967 92.0889 11.068 94.9983 12.791 97.1892C15.6508 100.842 18.92 104.154 22.5326 107.038C24.7053 108.77 27.5905 108.893 29.8945 107.323C33.775 104.674 37.6706 103.961 40.8741 105.29C44.0826 106.635 46.3311 109.922 47.2102 114.579C47.7255 117.33 49.8477 119.312 52.6065 119.628C54.8802 119.868 57.2096 120 59.4984 120C59.8218 120 60.13 119.868 60.3523 119.633C60.5848 119.399 60.701 119.098 60.701 118.772V95.8547C60.7161 95.177 60.1704 94.6307 59.4984 94.6307ZM58.2807 117.534C56.482 117.493 54.673 117.366 52.8844 117.167C51.2018 116.973 49.9083 115.761 49.6 114.089C48.5541 108.612 45.7852 104.674 41.7987 103.002C40.4394 102.442 39.0044 102.157 37.519 102.157C34.6338 102.157 31.5567 103.211 28.5302 105.275C27.1357 106.228 25.3621 106.161 24.0433 105.107C20.5771 102.34 17.4343 99.1607 14.6906 95.6654C13.6447 94.3356 13.579 92.5625 14.5239 91.1512C17.6161 86.535 18.4195 81.7864 16.7623 77.7816C15.1202 73.7769 11.2397 71.0001 5.83324 69.9301C4.176 69.604 2.97344 68.2997 2.78135 66.603C2.29123 62.2212 2.29123 57.7834 2.78135 53.4173C2.97336 51.7206 4.16578 50.4163 5.83324 50.0902C11.2397 49.0355 15.1202 46.2434 16.7623 42.2387C18.4044 38.234 17.6162 33.4854 14.5239 28.8691C13.579 27.4629 13.6447 25.6847 14.6906 24.3549C17.4343 20.8597 20.5771 17.6752 24.0433 14.9137C25.362 13.859 27.1355 13.7927 28.5302 14.7455C33.108 17.8739 37.8171 18.6738 41.8041 17.0129C45.7856 15.3417 48.5546 11.4184 49.6055 5.92592C49.9288 4.25479 51.2223 3.04214 52.8898 2.84845C54.6734 2.63954 56.4873 2.50707 58.2861 2.4816V22.9585C48.9234 23.2592 40.1513 27.0805 33.5027 33.7958C26.5551 40.8016 22.7303 50.1158 22.7303 60.0158C22.7303 69.9156 26.5602 79.2289 33.5027 86.2358C40.1621 92.9511 48.9238 96.7725 58.2861 97.0731L58.2807 117.534Z" fill="#1ABCFF"/>
</svg>
