<svg width="110" height="110" viewBox="0 0 110 110" fill="none" xmlns="http://www.w3.org/2000/svg">
<path d="M54.8317 109.683C40.1876 109.683 26.4148 103.981 16.0632 93.6163C5.70274 83.2645 0 69.4963 0 54.8522C0 40.2081 5.7023 26.4353 16.0544 16.0837C31.5499 0.588145 54.7239 -4.19054 75.0971 3.90154L73.2622 8.51665C54.7371 1.15567 33.6686 5.50863 19.5658 19.5987C10.1507 29.0137 4.9679 41.5318 4.9679 54.8525C4.9679 68.1732 10.1502 80.6909 19.5658 90.1064C28.9813 99.5218 41.4989 104.704 54.8196 104.704C68.1403 104.704 80.6579 99.5219 90.0734 90.1064C104.198 75.9815 108.538 54.8657 101.121 36.3153L105.736 34.4718C113.888 54.866 109.118 78.0873 93.5885 93.6224C83.2366 103.974 69.4684 109.689 54.8199 109.689L54.8317 109.683Z" fill="#1ABCFF"/>
<path d="M54.8317 90.7671C45.2362 90.7671 36.2252 87.0286 29.4444 80.252C15.4482 66.2437 15.4482 43.4724 29.4444 29.4641C39.1344 19.7741 53.7536 16.4393 66.6959 20.9472L65.063 25.6439C53.9072 21.7507 41.3081 24.6255 32.9674 32.9792C20.9008 45.0458 20.9008 64.671 32.9674 76.7365C38.8115 82.5806 46.5852 85.7992 54.8401 85.7992C63.0991 85.7992 70.868 82.5806 76.7127 76.7365C85.0663 68.3828 87.941 55.7835 84.0479 44.641L88.7318 43.008C93.2524 55.9514 89.9049 70.5702 80.2148 80.2596C73.4382 87.0362 64.4102 90.7747 54.8275 90.7747L54.8317 90.7671Z" fill="#1ABCFF"/>
<path d="M54.8317 71.8514C50.2896 71.8514 46.0312 70.0896 42.8124 66.8711C36.1862 60.245 36.1862 49.4681 42.8124 42.8457C45.3434 40.3146 48.5275 38.6817 52.0512 38.1016L52.8547 43.0003C50.371 43.4129 48.1107 44.5731 46.3231 46.3607C41.6392 51.0446 41.6392 58.6759 46.3231 63.36C48.5963 65.6332 51.6129 66.8836 54.8272 66.8836C58.0457 66.8836 61.0623 65.6289 63.3312 63.36C65.1188 61.5724 66.2876 59.3121 66.6916 56.8284L71.5903 57.6319C71.0102 61.147 69.3644 64.3527 66.8334 66.8707C63.6277 70.0764 59.3563 71.8511 54.8141 71.8511L54.8317 71.8514Z" fill="#1ABCFF"/>
<path d="M56.5854 56.6134L53.0703 53.0983L77.5688 28.5999L74.9905 19.563C74.7412 18.6993 74.9905 17.7668 75.6178 17.1266L92.0242 0.729022C92.6258 0.127418 93.5025 -0.134706 94.3447 0.0672666C95.1826 0.256335 95.8573 0.870832 96.1323 1.67435L99.1747 10.5479L108.366 13.8824C109.157 14.1789 109.763 14.8536 109.939 15.6786C110.128 16.508 109.866 17.3717 109.277 17.9733L93.081 34.1695C92.4407 34.8098 91.5211 35.0461 90.6446 34.8098L81.0877 32.1112L56.5854 56.6134ZM82.3643 27.3109L90.5848 29.6314L102.995 17.2215L96.3599 14.8066C95.6509 14.5444 95.1052 13.9901 94.8559 13.2811L92.7159 7.05891L80.1642 19.6107L82.3643 27.3109Z" fill="#1ABCFF"/>
</svg>
