<svg width="194" height="125" viewBox="0 0 194 125" fill="none" xmlns="http://www.w3.org/2000/svg">
<g clip-path="url(#clip0_5077_135)">
<path d="M35.27 32.25C39.16 31.93 42.69 34.11 42.61 38.31C42.49 44.76 32.19 45.25 30.23 39.76C28.79 35.72 31.12 32.59 35.27 32.24V32.25Z" fill="white"/>
<path d="M62.7498 35.93L66.9898 65.92H136.73C137.35 61.97 136.53 57.13 133.12 54.64C130.41 52.67 127.04 52.79 123.99 53.86C122.62 54.34 121.48 55.06 120.27 55.83L114.7 48.46V48.29C117.71 45.67 121.9 43.72 125.89 43.15C130.35 42.5 135.28 43.37 139.27 45.42L149.3 71.31C148.96 73.79 148.27 76.2 147.64 78.62H58.0898L51.8398 35.93H62.7598H62.7498Z" fill="white"/>
<path d="M43.2399 47.05L46.1199 68.7C49.0499 80.42 47.1399 89.67 34.2399 92.45C31.3699 93.07 28.4499 92.86 25.5599 92.49L23.4299 83.07C25.5999 83.16 27.9699 83.37 30.1099 82.91C33.6799 82.14 36.5799 78.8 36.3599 75.07L32.4399 47.04H43.2499L43.2399 47.05Z" fill="white"/>
<path d="M133.63 82.68C136.95 82.31 140.63 83.39 141.43 87.01C142.63 92.46 137.57 94.89 132.91 93.51C127.35 91.86 127.39 83.38 133.63 82.68Z" fill="white"/>
<mask id="mask0_5077_135" style="mask-type:luminance" maskUnits="userSpaceOnUse" x="122" y="2" width="57" height="122">
<path d="M172.77 54.93C182.37 81.07 180.09 107.36 169.57 123.63L122.63 2.82999C142.43 6.84999 162.52 27.03 172.77 54.93Z" fill="white"/>
</mask>
<g mask="url(#mask0_5077_135)">
<mask id="mask1_5077_135" style="mask-type:luminance" maskUnits="userSpaceOnUse" x="83" y="-17" width="139" height="161">
<path d="M175.261 -16.0491L83.6187 17.6144L129.678 143.002L221.321 109.339L175.261 -16.0491Z" fill="url(#paint0_radial_5077_135)"/>
</mask>
<g mask="url(#mask1_5077_135)">
<path d="M175.261 -16.0491L83.6187 17.6144L129.678 143.002L221.321 109.339L175.261 -16.0491Z" fill="url(#paint1_radial_5077_135)"/>
</g>
</g>
</g>
<defs>
<radialGradient id="paint0_radial_5077_135" cx="0" cy="0" r="1" gradientUnits="userSpaceOnUse" gradientTransform="translate(127.209 70.2227) rotate(159.83) scale(47.2725 71.2173)">
<stop stop-color="white"/>
<stop offset="0.43" stop-color="white"/>
<stop offset="0.54" stop-color="#B9B9B9"/>
<stop offset="0.67" stop-color="#787878"/>
<stop offset="0.78" stop-color="#444444"/>
<stop offset="0.87" stop-color="#1F1F1F"/>
<stop offset="0.95" stop-color="#080808"/>
<stop offset="1"/>
</radialGradient>
<radialGradient id="paint1_radial_5077_135" cx="0" cy="0" r="1" gradientUnits="userSpaceOnUse" gradientTransform="translate(129.898 69.2348) rotate(159.83) scale(47.2725 71.2173)">
<stop stop-color="#1299CD"/>
<stop offset="0.55" stop-color="#1299CD"/>
<stop offset="0.58" stop-color="#1299CD" stop-opacity="0.91"/>
<stop offset="0.69" stop-color="#1299CD" stop-opacity="0.59"/>
<stop offset="0.79" stop-color="#1299CD" stop-opacity="0.33"/>
<stop offset="0.88" stop-color="#1299CD" stop-opacity="0.15"/>
<stop offset="0.95" stop-color="#1299CD" stop-opacity="0.04"/>
<stop offset="1" stop-color="#1299CD" stop-opacity="0"/>
</radialGradient>
<clipPath id="clip0_5077_135">
<rect width="193.88" height="124.89" fill="white"/>
</clipPath>
</defs>
</svg>
