<svg width="140" height="103" viewBox="0 0 140 103" fill="none" xmlns="http://www.w3.org/2000/svg">
<path d="M68.372 43.1533L66.4138 54.2342C65.8884 54.2819 65.4346 54.282 65.0286 54.282C59.9897 54.282 57.506 51.8699 57.506 46.5922C57.506 38.2099 63.1898 34.5561 68.8019 34.4844C72.0259 34.4367 76.0856 35.2247 78.3305 37.0636L79.8111 28.8007C77.5663 27.6544 73.3393 26.9141 69.781 26.9141C64.6226 26.9141 59.9658 28.4186 56.3836 30.8545L48.1685 52.0371C49.7924 58.2224 55.2851 61.7329 62.4017 61.7329C66.7004 61.7329 71.0705 60.9926 74.5094 59.4403L77.423 43.1533H68.372Z" fill="#043344"/>
<path d="M92.468 46.6403L97.5787 36.6102H97.8174L98.6771 46.6403H92.4919H92.468ZM95.1666 27.6069L76.6348 61.0407H85.2321L88.9098 53.7569H99.298L99.9907 61.0407H109.448L104.743 27.6069H95.1666Z" fill="#043344"/>
<path d="M130.033 33.9829C133.424 33.9829 137.031 35.177 138.511 36.1561L139.944 29.1589C137.986 28.0126 133.974 26.9141 129.842 26.9141C122.272 26.9141 115.609 31.0455 115.609 38.9024C115.609 43.4399 118.929 45.8519 122.32 47.3803C125.83 48.9326 128.911 49.6729 128.911 51.6311C128.911 53.5894 126.857 54.6641 124.254 54.6641C120.696 54.6641 116.111 53.7566 113.579 52.3237L112.099 59.6075C115.084 60.9926 118.69 61.7329 122.081 61.7329C130.177 61.7329 137.461 58.6283 137.461 50.1505C137.461 45.1593 133.783 42.819 130.416 41.195C127.024 39.595 124.445 38.783 124.445 37.0158C124.445 34.962 127.144 33.9829 130.01 33.9829" fill="#043344"/>
<mask id="mask0_77_102" style="mask-type:luminance" maskUnits="userSpaceOnUse" x="22" y="0" width="47" height="99">
<path d="M27.5352 42.437C19.7021 63.7391 21.5649 85.1366 30.1383 98.3907L68.3722 0C52.2524 3.27173 35.8697 19.702 27.5352 42.437Z" fill="white"/>
</mask>
<g mask="url(#mask0_77_102)">
<path d="M25.4596 -15.4349L-12.0564 86.6956L62.5912 114.116L100.107 11.9857L25.4596 -15.4349Z" fill="url(#paint0_radial_77_102)"/>
</g>
<defs>
<radialGradient id="paint0_radial_77_102" cx="0" cy="0" r="1" gradientUnits="userSpaceOnUse" gradientTransform="translate(55.7644 49.5198) rotate(20.17) scale(37.6309 56.6919)">
<stop stop-color="#1299CD"/>
<stop offset="0.55" stop-color="#1299CD"/>
<stop offset="0.58" stop-color="#1299CD" stop-opacity="0.91"/>
<stop offset="0.69" stop-color="#1299CD" stop-opacity="0.59"/>
<stop offset="0.79" stop-color="#1299CD" stop-opacity="0.33"/>
<stop offset="0.88" stop-color="#1299CD" stop-opacity="0.15"/>
<stop offset="0.95" stop-color="#1299CD" stop-opacity="0.04"/>
<stop offset="1" stop-color="#1299CD" stop-opacity="0"/>
</radialGradient>
</defs>
</svg>
