<svg width="198" height="136" viewBox="0 0 198 136" fill="none" xmlns="http://www.w3.org/2000/svg">
<path d="M12.7617 31.7747C16.9449 31.4204 20.7465 33.7872 20.6617 38.3224C20.5345 45.2952 9.44055 45.8196 7.32068 39.8955C5.76611 35.5304 8.28169 32.1432 12.7475 31.7747H12.7617Z" fill="#143345"/>
<path d="M42.3549 35.743L46.9197 68.1271H122.034C122.698 63.8612 121.808 58.6315 118.147 55.9529C115.222 53.827 111.604 53.9546 108.311 55.1167C106.827 55.6411 105.612 56.4064 104.297 57.2426L98.3053 49.2777V49.0934C101.556 46.2589 106.064 44.1614 110.36 43.5378C115.165 42.8434 120.479 43.7788 124.775 45.9897L135.587 73.952C135.219 76.6306 134.47 79.2383 133.792 81.846H37.3379L30.5967 35.7288H42.3549V35.743Z" fill="#143345"/>
<path d="M21.3541 47.7612L24.4491 71.1458C27.6148 83.8018 25.5515 93.7934 11.6451 96.798C8.55013 97.4641 5.41273 97.2373 2.28946 96.8405L0 86.6647C2.34599 86.7639 4.88983 86.9906 7.19342 86.4946C11.0374 85.6726 14.1607 82.0586 13.9205 78.0195L9.69486 47.7471H21.34L21.3541 47.7612Z" fill="#143345"/>
<path d="M118.712 86.2537C122.288 85.8427 126.245 87.019 127.107 90.9306C128.407 96.8263 122.952 99.4482 117.935 97.946C111.943 96.1602 111.999 87.0048 118.712 86.2395V86.2537Z" fill="#143345"/>
<mask id="mask0_5266_2" style="mask-type:luminance" maskUnits="userSpaceOnUse" x="106" y="0" width="62" height="131">
<path d="M160.856 56.2789C171.201 84.5105 168.741 112.912 157.407 130.486L106.855 0C128.181 4.33678 149.818 26.134 160.856 56.2789Z" fill="white"/>
</mask>
<g mask="url(#mask0_5266_2)">
<mask id="mask1_5266_2" style="mask-type:luminance" maskUnits="userSpaceOnUse" x="64" y="-21" width="150" height="173">
<path d="M163.552 -20.3896L64.8413 15.9728L114.448 151.401L213.159 115.038L163.552 -20.3896Z" fill="url(#paint0_radial_5266_2)"/>
</mask>
<g mask="url(#mask1_5266_2)">
<path d="M163.552 -20.3896L64.8413 15.9728L114.448 151.401L213.159 115.038L163.552 -20.3896Z" fill="url(#paint1_radial_5266_2)"/>
</g>
</g>
<defs>
<radialGradient id="paint0_radial_5266_2" cx="0" cy="0" r="1" gradientTransform="matrix(-47.508 17.5007 -26.2909 -71.7748 110.523 73.8327)" gradientUnits="userSpaceOnUse">
<stop stop-color="white"/>
<stop offset="0.43" stop-color="white"/>
<stop offset="0.54" stop-color="#B9B9B9"/>
<stop offset="0.67" stop-color="#787878"/>
<stop offset="0.78" stop-color="#444444"/>
<stop offset="0.87" stop-color="#1F1F1F"/>
<stop offset="0.95" stop-color="#080808"/>
<stop offset="1"/>
</radialGradient>
<radialGradient id="paint1_radial_5266_2" cx="0" cy="0" r="1" gradientTransform="matrix(-47.508 17.5007 -26.2909 -71.7748 114.324 72.4326)" gradientUnits="userSpaceOnUse">
<stop stop-color="#1299CD"/>
<stop offset="0.55" stop-color="#1299CD"/>
<stop offset="0.58" stop-color="#1299CD" stop-opacity="0.91"/>
<stop offset="0.69" stop-color="#1299CD" stop-opacity="0.59"/>
<stop offset="0.79" stop-color="#1299CD" stop-opacity="0.33"/>
<stop offset="0.88" stop-color="#1299CD" stop-opacity="0.15"/>
<stop offset="0.95" stop-color="#1299CD" stop-opacity="0.04"/>
<stop offset="1" stop-color="#1299CD" stop-opacity="0"/>
</radialGradient>
</defs>
</svg>
