<svg width="54" height="61" viewBox="0 0 54 61" fill="none" xmlns="http://www.w3.org/2000/svg">
<path d="M53.9395 36.056C53.7003 38.4572 53.0833 40.7453 52.0886 42.9202L31.7291 47.2827V34.2834L25.3707 35.6663V42.8574C25.3707 43.486 25.1944 44.0643 24.8293 44.6049L21.5557 49.5079C20.6869 50.765 19.4908 51.5571 17.9924 51.8714L0 55.6806C0.239228 53.2794 0.856184 50.9914 1.85087 48.8164L19.0501 45.1832V37.0115L2.98404 40.4184C3.22327 38.0172 3.84023 35.7292 4.83491 33.5165L19.0501 30.4993V5.30531C20.8254 3.13039 22.9281 1.35776 25.3707 0V29.1541L31.7291 27.8089V8.46084C33.5044 6.31105 35.6197 4.53842 38.0875 3.15552V26.4637L53.9395 23.0819C53.7003 25.4831 53.0833 27.7712 52.0886 29.9461L38.0875 32.9256V39.4253L53.9395 36.0434V36.056ZM31.7291 60.1939C31.9684 57.8178 32.5853 55.5298 33.58 53.3297L53.9395 49.005C53.7003 51.4062 53.0833 53.6943 52.0886 55.8692L31.7291 60.1939Z" fill="white"/>
</svg>
