<svg width="70" height="56" viewBox="0 0 70 56" fill="none" xmlns="http://www.w3.org/2000/svg">
<path fill-rule="evenodd" clip-rule="evenodd" d="M54.1764 55.387C47.7864 55.387 42.3164 51.727 40.1364 46.557C34.0164 35.037 39.2464 19.947 54.9664 1.33698C56.2464 -0.17302 58.6064 -0.44302 60.2464 0.72698C61.8864 1.89698 62.1864 4.07698 60.9064 5.58698C53.0064 14.937 48.1564 23.007 46.1964 29.797C48.5064 28.467 51.2464 27.697 54.1664 27.697C62.4864 27.697 69.2264 33.897 69.2264 41.547C69.2264 49.197 62.4864 55.397 54.1664 55.397L54.1764 55.387ZM16.5364 55.387C10.1464 55.387 4.6864 51.727 2.4964 46.567C-3.6336 35.047 1.60642 19.957 17.3264 1.33698C18.6064 -0.17302 20.9664 -0.44302 22.6064 0.72698C24.2464 1.89698 24.5464 4.07698 23.2664 5.58698C15.3664 14.937 10.5164 23.007 8.5564 29.797C10.8664 28.467 13.6064 27.697 16.5264 27.697C24.8464 27.697 31.5864 33.897 31.5864 41.547C31.5864 49.197 24.8464 55.397 16.5264 55.397L16.5364 55.387Z" fill="#143345"/>
</svg>
