<svg width="31" height="27" viewBox="0 0 31 27" fill="none" xmlns="http://www.w3.org/2000/svg">
<path fill-rule="evenodd" clip-rule="evenodd" d="M30.3933 15.3764C30.4632 15.3064 30.5319 15.2363 30.5319 15.1674C30.6006 15.0285 30.6693 14.9584 30.7403 14.8206C30.809 14.6805 30.809 14.6116 30.809 14.4738C30.8789 14.4037 30.8789 14.2647 30.9476 14.1958C31.0175 13.7089 31.0175 13.2897 30.9476 12.8716C30.8789 12.7338 30.8789 12.6626 30.809 12.526C30.809 12.4559 30.809 12.3169 30.7403 12.178C30.6704 12.1079 30.6017 11.969 30.5319 11.8989C30.5319 11.7599 30.4632 11.6899 30.3933 11.6221C30.3234 11.4131 30.186 11.2741 29.9764 11.0651L19.9152 1.04481C18.597 -0.34827 16.445 -0.34827 15.1279 1.04481C13.8097 2.36554 13.8097 4.5235 15.1279 5.84652L19.3597 10.0901H3.40032C1.52665 10.0901 0 11.6221 0 13.501C0 15.3799 1.52551 16.9096 3.40032 16.9096H19.3597L15.1279 21.152C13.8097 22.5463 13.8097 24.7031 15.1279 26.0238C15.822 26.6509 16.6534 27 17.5559 27C18.3897 27 19.291 26.652 19.9152 26.0238L29.9764 15.9369C30.1849 15.7945 30.3234 15.5866 30.3933 15.3787V15.3764Z" fill="black"/>
</svg>
