<svg width="36" height="38" viewBox="0 0 36 38" fill="none" xmlns="http://www.w3.org/2000/svg">
<path d="M35.0116 22.5655C34.861 24.0711 34.4466 25.4859 33.8063 26.8645L20.6039 29.5855V21.459L16.4794 22.3297V26.8283C16.4794 27.2273 16.3664 27.5901 16.1216 27.9167L13.9934 30.9822C13.4283 31.7622 12.6562 32.2701 11.6768 32.4515L0 34.8278C0.150669 33.3222 0.565006 31.9073 1.20535 30.5287L12.3548 28.2613V23.146L1.93984 25.2864C2.09051 23.7808 2.50488 22.3478 3.14522 20.9692L12.3548 19.0827V3.31955C13.5037 1.95909 14.8785 0.852555 16.4605 0V18.2302L20.5851 17.3957V5.29675C21.734 3.95443 23.1088 2.84789 24.7097 1.97719V16.5613L34.9928 14.4572C34.8421 15.9627 34.4278 17.3776 33.7874 18.7562L24.7097 20.6246V24.6878L34.9928 22.5837L35.0116 22.5655ZM20.6039 37.6757C20.7546 36.1883 21.1689 34.7552 21.8093 33.3766L35.0116 30.6738C34.861 32.1794 34.4466 33.5943 33.8063 34.9729L20.6039 37.6757Z" fill="white"/>
</svg>
