<svg width="23" height="26" viewBox="0 0 23 26" fill="none" xmlns="http://www.w3.org/2000/svg">
<path d="M13.34 25.33C13.44 24.33 13.7 23.3699 14.12 22.4399L22.67 20.62C22.57 21.63 22.31 22.59 21.89 23.5L13.34 25.3199V25.33ZM22.67 15.18C22.57 16.19 22.31 17.15 21.89 18.06L13.34 19.89V14.43L10.67 15.0099V18.03C10.67 18.29 10.5899 18.5399 10.4399 18.7599L9.06 20.8199C8.69 21.3499 8.19 21.68 7.56 21.81L0 23.41C0.1 22.4 0.359968 21.44 0.779968 20.52L8 18.99V15.56L1.25 16.99C1.35 15.98 1.60997 15.02 2.02997 14.09L8 12.8199V2.22998C8.74 1.30998 9.63003 0.57 10.66 0V12.2599L13.33 11.7V3.56C14.07 2.66 14.96 1.90996 16 1.32996V11.1299L22.65 9.70996C22.55 10.72 22.29 11.68 21.87 12.59L15.99 13.84V16.5699L22.64 15.15L22.67 15.18Z" fill="#143345"/>
</svg>
